HIERARCHY
ROOT wound
{
	OFFSET 0.000000 0.000000 0.000000
	CHANNELS 6 Xposition Yposition Zposition Xrotation Yrotation Zrotation
	JOINT Spine_01
	{
		OFFSET -0.000000 138.184219 -44.816219
		CHANNELS 3 Xrotation Yrotation Zrotation
		JOINT Spine_02
		{
			OFFSET -0.000003 -4.180267 28.050579
			CHANNELS 3 Xrotation Yrotation Zrotation
			JOINT Spine_03
			{
				OFFSET -0.000003 -2.923813 35.501560
				CHANNELS 3 Xrotation Yrotation Zrotation
				JOINT Spine_04
				{
					OFFSET -0.000002 1.220093 39.223053
					CHANNELS 3 Xrotation Yrotation Zrotation
					JOINT Neck_Base
					{
						OFFSET -0.000003 3.589035 29.437283
						CHANNELS 3 Xrotation Yrotation Zrotation
						JOINT Neck_01
						{
							OFFSET -0.000002 17.853806 9.438614
							CHANNELS 3 Xrotation Yrotation Zrotation
							JOINT Neck_02
							{
								OFFSET 0.000148 15.283737 15.280380
								CHANNELS 3 Xrotation Yrotation Zrotation
								JOINT Head
								{
									OFFSET 0.000907 15.541245 15.523605
									CHANNELS 3 Xrotation Yrotation Zrotation
									JOINT L_Ear
									{
										OFFSET 7.925150 15.989334 10.211792
										CHANNELS 3 Xrotation Yrotation Zrotation
										End Site
										{
											OFFSET 5.445827 7.761017 -13.963913
										}
									}
									JOINT R_Ear
									{
										OFFSET -7.923855 15.989685 10.212418
										CHANNELS 3 Xrotation Yrotation Zrotation
										End Site
										{
											OFFSET 5.447087 -7.761108 13.963364
										}
									}
									JOINT Jaw
									{
										OFFSET 0.000369 -4.774384 8.228775
										CHANNELS 3 Xrotation Yrotation Zrotation
										End Site
										{
											OFFSET 0.000100 16.853516 -0.916611
										}
									}
								}
							}
						}
					}
					JOINT R_Scapula
					{
						OFFSET -6.756301 17.541809 7.673992
						CHANNELS 3 Xrotation Yrotation Zrotation
						JOINT R_Shoulder
						{
							OFFSET -4.012417 -35.541100 21.975204
							CHANNELS 3 Xrotation Yrotation Zrotation
							JOINT R_Front_UpperLeg
							{
								OFFSET -3.177618 -27.372452 -18.691002
								CHANNELS 3 Xrotation Yrotation Zrotation
								JOINT R_Front_LowerLeg
								{
									OFFSET 1.602910 -39.613792 4.052773
									CHANNELS 3 Xrotation Yrotation Zrotation
									JOINT R_Front_Ankle
									{
										OFFSET 1.184065 -30.600536 1.010201
										CHANNELS 3 Xrotation Yrotation Zrotation
										JOINT R_Front_Hoof
										{
											OFFSET 0.000001 -9.177106 4.105614
											CHANNELS 3 Xrotation Yrotation Zrotation
											End Site
											{
												OFFSET 0.000001 -0.000002 -10.053635
											}
										}
									}
								}
							}
						}
					}
					JOINT L_Scapula
					{
						OFFSET 6.756304 17.541611 7.674046
						CHANNELS 3 Xrotation Yrotation Zrotation
						JOINT L_Shoulder
						{
							OFFSET 2.967161 -35.673485 21.926056
							CHANNELS 3 Xrotation Yrotation Zrotation
							JOINT L_Front_UpperLeg
							{
								OFFSET 1.995074 -26.953537 -19.447914
								CHANNELS 3 Xrotation Yrotation Zrotation
								JOINT L_Front_LowerLeg
								{
									OFFSET -0.867885 -39.632118 -4.094696
									CHANNELS 3 Xrotation Yrotation Zrotation
									JOINT L_Front_Ankle
									{
										OFFSET -0.660717 -30.429415 -3.524235
										CHANNELS 3 Xrotation Yrotation Zrotation
										JOINT L_Front_Hoof
										{
											OFFSET 0.004589 -9.221649 4.004421
											CHANNELS 3 Xrotation Yrotation Zrotation
											End Site
											{
												OFFSET 0.011361 -0.110421 10.052956
											}
										}
									}
								}
							}
						}
					}
				}
			}
		}
		JOINT L_Hip
		{
			OFFSET 14.887407 -7.729385 -12.131332
			CHANNELS 3 Xrotation Yrotation Zrotation
			JOINT L_Back_UpperLeg
			{
				OFFSET 0.000001 -34.478554 8.440952
				CHANNELS 3 Xrotation Yrotation Zrotation
				JOINT L_Back_LowerLeg
				{
					OFFSET -3.196044 -42.364552 -14.576733
					CHANNELS 3 Xrotation Yrotation Zrotation
					JOINT L_Back_Ankle
					{
						OFFSET 1.655679 -33.756046 12.931908
						CHANNELS 3 Xrotation Yrotation Zrotation
						JOINT L_Back_Hoof
						{
							OFFSET 0.582801 -11.035065 3.767303
							CHANNELS 3 Xrotation Yrotation Zrotation
							End Site
							{
								OFFSET 1.784864 0.000007 11.537731
							}
						}
					}
				}
			}
		}
		JOINT R_Hip
		{
			OFFSET -14.887403 -7.729263 -12.131321
			CHANNELS 3 Xrotation Yrotation Zrotation
			JOINT R_Back_UpperLeg
			{
				OFFSET -0.000001 -35.225845 4.378201
				CHANNELS 3 Xrotation Yrotation Zrotation
				JOINT R_Back_LowerLeg
				{
					OFFSET 3.960898 -39.350445 -21.290836
					CHANNELS 3 Xrotation Yrotation Zrotation
					JOINT R_Back_Ankle
					{
						OFFSET -0.902665 -36.023094 3.312668
						CHANNELS 3 Xrotation Yrotation Zrotation
						JOINT R_Back_Hoof
						{
							OFFSET -0.767586 -11.035024 3.734024
							CHANNELS 3 Xrotation Yrotation Zrotation
							End Site
							{
								OFFSET 2.350783 -0.000007 -11.435814
							}
						}
					}
				}
			}
		}
		JOINT Tail_01
		{
			OFFSET 0.000002 9.427795 -23.815601
			CHANNELS 3 Xrotation Yrotation Zrotation
			JOINT Tail_02
			{
				OFFSET -0.012694 -21.342262 -20.047302
				CHANNELS 3 Xrotation Yrotation Zrotation
				JOINT Tail_03
				{
					OFFSET -0.006651 -30.740120 -3.600845
					CHANNELS 3 Xrotation Yrotation Zrotation
					JOINT Tail_04
					{
						OFFSET -0.005205 -30.781754 -0.448181
						CHANNELS 3 Xrotation Yrotation Zrotation
						JOINT Tail_05
						{
							OFFSET -0.005468 -30.958424 -0.949944
							CHANNELS 3 Xrotation Yrotation Zrotation
							End Site
							{
								OFFSET -0.013741 2.804802 -30.845734
							}
						}
					}
				}
			}
		}
	}
}
MOTION
Frames: 9
Frame Time: 0.033333
0.000000 0.000000 0.000000 0.000006 0.000000 -0.000000 -16.660517 6.319236 -30.116445 -16.407243 -17.503806 5.548027 -1.631046 -1.027420 15.214475 12.689551 5.885338 1.021087 32.995356 -0.881951 1.468313 -3.811865 -1.598732 0.698027 5.776930 -1.436393 0.720575 17.887810 0.235599 -0.052775 -0.000016 0.000080 -0.000054 -0.000022 0.000065 -0.000103 -0.000011 0.000066 0.000011 -5.379238 1.916479 -2.294397 21.581388 -2.419802 0.407627 -3.800405 -15.364000 -9.742516 -3.944368 -0.152715 0.095484 19.675268 9.020177 12.127515 -0.000020 -0.000014 0.000078 -5.279370 -4.988208 8.164755 10.747052 0.836645 -0.152471 -21.673698 6.273741 5.671363 27.204722 -0.519639 0.536960 1.698390 2.771856 -3.566871 16.111405 -0.002638 0.000155 -32.062192 3.929868 -5.323965 90.661595 -33.181616 -17.409312 -84.275150 -7.931316 10.657845 6.910215 17.954846 -18.525806 0.000026 0.000006 -0.000001 -24.131637 -3.141168 -15.623322 94.940210 3.104468 -15.300674 -109.508075 15.583876 -10.267337 71.009625 -7.999223 65.959171 0.980013 0.001714 0.201447 37.042045 -20.303214 18.251859 20.031300 9.746554 -35.486726 -2.790899 2.633457 -28.590981 -1.090656 0.368013 -11.403720 -3.433107 -0.206491 2.278901 
0.000000 0.000000 0.000000 0.000006 0.000000 -0.000000 -16.514443 6.062347 -29.827702 -17.128371 -17.355437 5.200403 -1.424083 -0.938463 15.154906 13.268728 5.731729 1.031294 32.620188 -0.876745 1.452337 -3.812288 -1.597796 0.670236 5.496508 -1.429582 0.692384 17.614030 0.242162 -0.054272 0.000002 0.000084 -0.000126 -0.000002 0.000056 0.000012 -0.000012 0.000067 0.000011 -5.270701 1.777414 -2.079336 20.525528 -2.306313 0.366681 -2.971897 -15.495285 -10.200063 -3.944369 -0.152714 0.095487 19.228610 9.164664 12.388276 -0.000022 -0.000021 0.000080 -5.257175 -4.907692 8.035589 10.326931 0.804566 -0.143578 -20.693772 6.469215 5.810748 25.863075 -0.500409 0.505119 1.539949 2.726846 -3.564984 16.585975 -0.002793 0.000073 -32.054194 3.867833 -5.264193 90.618900 -33.644948 -17.651794 -83.875372 -7.863603 10.644009 6.136913 17.931910 -18.350186 0.000021 0.000020 -0.000006 -23.937791 -3.141165 -15.623337 95.231743 2.495064 -15.597540 -109.337900 15.553024 -10.279892 69.888244 -8.634084 66.133546 1.388620 0.003449 0.285425 36.228604 -19.739680 17.495157 20.526851 9.326979 -34.609962 -2.633542 2.596690 -28.629701 -1.021287 0.372190 -11.752752 -3.433106 -0.206488 2.278902 
0.000000 0.000000 0.000000 0.000006 0.000000 -0.000000 -16.346789 5.775666 -29.499317 -17.858378 -17.183137 4.842308 -1.205073 -0.831908 15.090545 13.868702 5.587138 1.041132 32.227824 -0.871194 1.435912 -3.812017 -1.596279 0.642040 5.276068 -1.422123 0.663670 17.337368 0.248701 -0.055695 -0.000021 0.000075 0.000022 -0.000005 0.000055 -0.000003 -0.000012 0.000067 0.000011 -5.186103 1.643156 -1.863530 19.536242 -2.199296 0.330219 -2.247290 -15.627399 -10.648714 -3.944368 -0.152780 0.095488 18.780968 9.300408 12.635917 -0.000023 -0.000024 0.000083 -5.230870 -4.827558 7.908581 9.909871 0.772654 -0.134978 -19.830749 6.677227 5.969212 24.597279 -0.481586 0.475500 1.359749 2.667832 -3.588893 17.054586 -0.002950 -0.000033 -32.045011 3.801184 -5.210504 90.502144 -34.108001 -17.910621 -83.428725 -7.788055 10.627990 5.346025 17.932523 -18.197888 0.000023 0.000034 -0.000010 -23.392298 -3.141166 -15.623330 95.005725 1.841286 -15.933091 -109.441446 15.571815 -10.272284 69.168329 -9.274302 66.441594 1.859345 0.006189 0.382153 35.312283 -19.122668 16.678466 21.060711 8.885034 -33.660750 -2.440876 2.548958 -28.649454 -0.925823 0.374538 -12.146014 -3.433104 -0.206488 2.278900 
0.000000 0.000000 0.000000 0.000006 0.000000 -0.000000 -16.159073 5.464386 -29.135186 -18.589458 -16.989056 4.478693 -0.975645 -0.710450 15.021432 14.484436 5.452038 1.050549 31.821042 -0.865470 1.418911 -3.806116 -1.594567 0.613028 5.061563 -1.414270 0.634069 17.051586 0.255378 -0.057195 -0.000022 0.000076 -0.000005 -0.000003 0.000052 -0.000014 -0.000009 0.000066 0.000011 -5.125217 1.513057 -1.646583 18.611982 -2.098747 0.297829 -1.623169 -15.758828 -11.090847 -3.944372 -0.152652 0.095484 18.334319 9.427876 12.870970 -0.000021 -0.000030 0.000085 -5.200545 -4.748152 7.784214 9.497753 0.741062 -0.126712 -19.079626 6.897583 6.143344 23.399600 -0.463178 0.447866 1.164067 2.596566 -3.636942 17.516450 -0.003106 -0.000151 -32.034963 3.730825 -5.160980 90.314355 -34.564954 -18.177782 -82.933817 -7.704483 10.609547 4.542749 17.960035 -18.073555 0.000021 0.000045 -0.000016 -22.549263 -3.141168 -15.623322 94.323478 1.153397 -16.299379 -109.763811 15.630213 -10.248335 68.796862 -9.925665 66.857819 2.388420 0.010223 0.490838 34.316947 -18.461417 15.822275 21.621099 8.429638 -32.649400 -2.219041 2.491743 -28.647979 -0.804513 0.374756 -12.584253 -3.433106 -0.206489 2.278901 
0.000000 0.000000 0.000000 0.000006 0.000000 -0.000000 -15.952819 5.133708 -28.739332 -19.313789 -16.775636 4.114213 -0.737288 -0.576709 14.947609 15.110824 5.326906 1.059486 31.400412 -0.859484 1.401388 -3.796275 -1.592653 0.583220 4.852910 -1.406041 0.603623 16.757055 0.262195 -0.058689 -0.000025 0.000078 -0.000032 -0.000002 0.000057 -0.000026 -0.000012 0.000066 0.000011 -5.087498 1.386464 -1.428114 17.750731 -2.004583 0.269110 -1.095671 -15.888132 -11.528693 -3.944369 -0.152663 0.095484 17.890444 9.547533 13.093983 -0.000021 -0.000036 0.000087 -5.166467 -4.669797 7.662922 9.092586 0.709944 -0.118806 -18.433875 7.130038 6.329640 22.259084 -0.445115 0.421909 0.960909 2.514668 -3.707387 17.970875 -0.003263 -0.000257 -32.024404 3.657649 -5.113717 90.058804 -35.009866 -18.445551 -82.389218 -7.612692 10.588410 3.732093 18.017679 -17.981641 0.000023 0.000059 -0.000019 -21.462782 -3.141171 -15.623327 93.235654 0.447145 -16.689489 -110.249772 15.717947 -10.211595 68.731524 -10.590551 67.353240 2.972019 0.015833 0.610679 33.264620 -17.765879 14.945624 22.196756 7.969123 -31.587057 -1.974280 2.426553 -28.622770 -0.657686 0.372419 -13.068022 -3.433105 -0.206490 2.278901 
0.000000 0.000000 0.000000 0.000006 0.000000 -0.000000 -15.729926 4.788921 -28.315705 -20.023685 -16.545563 3.753179 -0.491455 -0.433196 14.869074 15.742712 5.212368 1.071050 30.966483 -0.853261 1.383367 -3.782589 -1.590529 0.552630 4.650035 -1.397461 0.572374 16.454114 0.269134 -0.060202 -0.000019 0.000079 -0.000055 -0.000011 0.000061 -0.000038 -0.000013 0.000067 0.000011 -5.071976 1.262714 -1.207807 16.950211 -1.916669 0.243685 -0.661093 -16.013863 -11.964308 -3.944373 -0.152676 0.095485 17.451120 9.659808 13.305417 -0.000023 -0.000041 0.000090 -5.128734 -4.592802 7.545155 8.696338 0.679458 -0.111289 -17.885540 7.374361 6.524491 21.161343 -0.427244 0.397274 0.760170 2.423625 -3.798365 18.417221 -0.003424 -0.000359 -32.013674 3.582535 -5.066779 89.739069 -35.437043 -18.706413 -81.793660 -7.512523 10.564284 2.918878 18.108517 -17.926330 0.000020 0.000070 -0.000024 -20.186971 -3.141161 -15.623327 91.789922 -0.256466 -17.095009 -110.844927 15.824920 -10.165552 68.932742 -11.269139 67.893255 3.606428 0.023310 0.740885 32.175433 -17.046897 14.065969 22.776985 7.511026 -30.485583 -1.712939 2.354991 -28.571289 -0.485940 0.367125 -13.597500 -3.433104 -0.206492 2.278902 
0.000000 0.000000 0.000000 0.000006 0.000000 -0.000000 -15.492209 4.435053 -27.868475 -20.711514 -16.301799 3.399568 -0.239461 -0.282329 14.785853 16.374856 5.108692 1.082658 30.519788 -0.846872 1.364832 -3.765170 -1.588222 0.521319 4.452833 -1.388527 0.540341 16.143152 0.276195 -0.061690 -0.000006 0.000083 -0.000080 -0.000004 0.000061 -0.000050 -0.000011 0.000066 0.000011 -5.077335 1.141130 -0.985430 16.207866 -1.834829 0.221209 -0.315622 -16.134664 -12.399514 -3.944369 -0.152686 0.095486 17.018024 9.765093 13.505703 -0.000021 -0.000046 0.000092 -5.086847 -4.514527 7.426459 8.297647 0.648731 -0.103934 -17.429902 7.626813 6.735770 20.133953 -0.410094 0.374530 0.544767 2.323188 -3.912857 18.854700 -0.003586 -0.000454 -32.003049 3.506371 -5.018255 89.359262 -35.840929 -18.952991 -81.145721 -7.403823 10.536856 2.107574 18.235514 -17.911642 0.000019 0.000085 -0.000029 -18.775903 -3.141164 -15.623335 90.037521 -0.932016 -17.503753 -111.495714 15.941264 -10.113883 69.356166 -11.960315 68.436214 4.287824 0.032954 0.880637 31.067406 -16.316267 13.199269 23.351763 7.062019 -29.357406 -1.441620 2.278777 -28.491338 -0.290290 0.358429 -14.172487 -3.433107 -0.206487 2.278903 
0.000000 0.000000 0.000000 0.000006 0.000000 -0.000000 -15.241717 4.077058 -27.401881 -21.369712 -16.047459 3.057016 0.017469 -0.126425 14.698022 17.001900 5.016260 1.094139 30.060882 -0.840313 1.345823 -3.744143 -1.585732 0.489324 4.261249 -1.379267 0.507569 15.824445 0.283379 -0.063262 -0.000004 0.000082 -0.000108 -0.000018 0.000064 -0.000134 -0.000010 0.000067 0.000011 -5.101900 1.021038 -0.760744 15.520843 -1.758826 0.201353 -0.055516 -16.249141 -12.835984 -3.944368 -0.152700 0.095486 16.592901 9.863732 13.695229 -0.000020 -0.000050 0.000094 -5.040015 -4.432302 7.302411 7.883876 0.616787 -0.096532 -17.065001 7.883408 6.972153 19.213145 -0.394378 0.354410 0.292548 2.213278 -4.054081 19.282620 -0.003743 -0.000532 -31.992927 3.430065 -4.966218 88.923715 -36.216429 -19.178153 -80.444103 -7.286456 10.505761 1.302316 18.401319 -17.941157 0.000018 0.000097 -0.000034 -17.283669 -3.141167 -15.623325 88.038625 -1.551213 -17.897447 -112.150326 16.057628 -10.060538 69.946471 -12.662700 68.932803 5.012507 0.045034 1.029135 29.956397 -15.586386 12.359684 23.911977 6.627775 -28.215175 -1.167160 2.199771 -28.381352 -0.072487 0.345947 -14.792329 -3.433105 -0.206488 2.278900 
0.000000 0.000000 0.000000 0.000006 0.000000 -0.000000 -14.980849 3.719769 -26.920166 -21.990781 -15.785947 2.728841 0.278191 0.032342 14.605735 17.618413 4.935439 1.105330 29.590299 -0.833545 1.326371 -3.719600 -1.583062 0.456655 4.075190 -1.369691 0.474101 15.498492 0.290676 -0.064893 -0.000026 0.000076 0.000010 0.000011 0.000053 0.000019 -0.000006 0.000067 0.000012 -5.143526 0.901766 -0.533605 14.886286 -1.688415 0.183824 0.122634 -16.355889 -13.275217 -3.944369 -0.152712 0.095485 16.177552 9.956053 13.874296 -0.000020 -0.000057 0.000096 -4.987877 -4.346402 7.173540 7.455159 0.583635 -0.089102 -16.784954 8.143497 7.231009 18.393033 -0.380111 0.336704 0.008348 2.095409 -4.220342 19.700279 -0.003903 -0.000610 -31.983536 3.354477 -4.908748 88.437201 -36.558755 -19.374928 -79.687195 -7.160248 10.470601 0.506774 18.608434 -18.018235 0.000016 0.000112 -0.000038 -15.764415 -3.141168 -15.623332 85.866632 -2.085659 -18.250081 -112.758732 16.165156 -10.009725 70.631963 -13.375704 69.326748 5.776631 0.059802 1.185543 28.856132 -14.870551 11.559966 24.449379 6.212980 -27.071567 -0.896685 2.119973 -28.240780 0.164783 0.329397 -15.455893 -3.433104 -0.206488 2.278899 
